#Comment line ignore any data following # character 
#Hierarchical Translation and Rotation (.htr) file 
[Header]	
#Header keywords are followed by a single value 
FileType HTR		#Single word string
DataType HTRS		#Translation followed by rotation and scale data
FileVersion 1		#integer
NumSegments 84		#integer
NumFrames 2		#integer
DataFrameRate 30		#integer, data frame rate in this file
EulerRotationOrder ZYX
CalibrationUnits mm
RotationUnits Degrees
GlobalAxisofGravity Y
BoneLengthAxis Y
ScaleFactor 1.00
[SegmentNames&Hierarchy]
#CHILD	PARENT
MASTER GLOBAL
root MASTER
chest root
L_mid_tent01 root
R_mid_tent01 root
spine01 root
Bip01_Neck chest
L_humerus chest
R_humerus chest
weapon_bone chest
Bip01_Head Bip01_Neck
eye_left_bone Bip01_Head
eye_right_bone Bip01_Head
L_forearm L_humerus
L_front_hand L_forearm
L_weapon_bone L_forearm
L_front_hand01_01 L_front_hand
L_front_hand02_01 L_front_hand
L_front_hand03_01 L_front_hand
L_front_hand01_02 L_front_hand01_01
L_front_hand02_02 L_front_hand02_01
L_front_hand03_02 L_front_hand03_01
R_forearm R_humerus
R_front_hand R_forearm
R_weapon_bone R_forearm
R_front_hand01_01 R_front_hand
R_front_hand02_01 R_front_hand
R_front_hand03_01 R_front_hand
R_front_hand01_02 R_front_hand01_01
R_front_hand02_02 R_front_hand02_01
R_front_hand03_02 R_front_hand03_01
null_rope01_connect L_mid_tent01
Rope1_Seg01 null_rope01_connect
Rope1_Seg02 Rope1_Seg01
Rope1_Seg03 Rope1_Seg02
Rope1_Seg04 Rope1_Seg03
Rope1_Seg05 Rope1_Seg04
Rope1_Seg06 Rope1_Seg05
Rope1_Seg07 Rope1_Seg06
Rope1_Seg09 Rope1_Seg07
L_mid_hand01 Rope1_Seg09
L_mid_hand02 Rope1_Seg09
L_mid_hand03 Rope1_Seg09
null_rope02_connect R_mid_tent01
Rope2_Seg01 null_rope02_connect
Rope2_Seg02 Rope2_Seg01
Rope2_Seg03 Rope2_Seg02
Rope2_Seg04 Rope2_Seg03
Rope2_Seg05 Rope2_Seg04
Rope2_Seg06 Rope2_Seg05
Rope2_Seg07 Rope2_Seg06
Rope2_Seg09 Rope2_Seg07
R_mid_hand01 Rope2_Seg09
R_mid_hand02 Rope2_Seg09
R_mid_hand03 Rope2_Seg09
spine02 spine01
spine03 spine02
pelvis spine03
null_rope03_connect pelvis
null_rope04_connect pelvis
Rope3_Seg01 null_rope03_connect
Rope3_Seg02 Rope3_Seg01
Rope3_Seg03 Rope3_Seg02
Rope3_Seg04 Rope3_Seg03
Rope3_Seg05 Rope3_Seg04
Rope3_Seg06 Rope3_Seg05
Rope3_Seg07 Rope3_Seg06
Rope3_Seg08 Rope3_Seg07
Rope3_Seg09 Rope3_Seg08
R_rear_hand01 Rope3_Seg09
R_rear_hand02 Rope3_Seg09
R_rear_hand03 Rope3_Seg09
Rope4_Seg01 null_rope04_connect
Rope4_Seg02 Rope4_Seg01
Rope4_Seg03 Rope4_Seg02
Rope4_Seg04 Rope4_Seg03
Rope4_Seg05 Rope4_Seg04
Rope4_Seg06 Rope4_Seg05
Rope4_Seg07 Rope4_Seg06
Rope4_Seg08 Rope4_Seg07
Rope4_Seg09 Rope4_Seg08
L_rear_hand01 Rope4_Seg09
L_rear_hand02 Rope4_Seg09
L_rear_hand03 Rope4_Seg09
[BasePosition]
#SegmentName Tx, Ty, Tz, Rx, Ry, Rz, BoneLength
MASTER 0.000000 0.000000 0.000000 -90.000000 0.000000 0.000000 10.000000 
root 0.000000 0.000000 0.000000 0.000000 0.000000 0.000000 10.000000 
chest 0.000000 0.000000 0.000000 0.000000 0.000000 0.000000 10.000000 
L_mid_tent01 0.000000 0.000000 0.000000 0.000000 0.000000 0.000000 10.000000 
R_mid_tent01 0.000000 0.000000 0.000000 0.000000 0.000000 0.000000 10.000000 
spine01 0.000000 0.000000 0.000000 0.000000 0.000000 0.000000 10.000000 
Bip01_Neck 0.000000 0.000000 0.000000 0.000000 0.000000 0.000000 10.000000 
L_humerus 0.000000 0.000000 0.000000 0.000000 0.000000 0.000000 10.000000 
R_humerus 0.000000 0.000000 0.000000 0.000000 0.000000 0.000000 10.000000 
weapon_bone 0.000000 0.000000 0.000000 0.000000 0.000000 0.000000 10.000000 
Bip01_Head 0.000000 0.000000 0.000000 0.000000 0.000000 0.000000 10.000000 
eye_left_bone 0.000000 0.000000 0.000000 0.000000 0.000000 0.000000 10.000000 
eye_right_bone 0.000000 0.000000 0.000000 0.000000 0.000000 0.000000 10.000000 
L_forearm 0.000000 0.000000 0.000000 0.000000 0.000000 0.000000 10.000000 
L_front_hand 0.000000 0.000000 0.000000 0.000000 0.000000 0.000000 10.000000 
L_weapon_bone 0.000000 0.000000 0.000000 0.000000 0.000000 0.000000 10.000000 
L_front_hand01_01 0.000000 0.000000 0.000000 0.000000 0.000000 0.000000 10.000000 
L_front_hand02_01 0.000000 0.000000 0.000000 0.000000 0.000000 0.000000 10.000000 
L_front_hand03_01 0.000000 0.000000 0.000000 0.000000 0.000000 0.000000 10.000000 
L_front_hand01_02 0.000000 0.000000 0.000000 0.000000 0.000000 0.000000 10.000000 
L_front_hand02_02 0.000000 0.000000 0.000000 0.000000 0.000000 0.000000 10.000000 
L_front_hand03_02 0.000000 0.000000 0.000000 0.000000 0.000000 0.000000 10.000000 
R_forearm 0.000000 0.000000 0.000000 0.000000 0.000000 0.000000 10.000000 
R_front_hand 0.000000 0.000000 0.000000 0.000000 0.000000 0.000000 10.000000 
R_weapon_bone 0.000000 0.000000 0.000000 0.000000 0.000000 0.000000 10.000000 
R_front_hand01_01 0.000000 0.000000 0.000000 0.000000 0.000000 0.000000 10.000000 
R_front_hand02_01 0.000000 0.000000 0.000000 0.000000 0.000000 0.000000 10.000000 
R_front_hand03_01 0.000000 0.000000 0.000000 0.000000 0.000000 0.000000 10.000000 
R_front_hand01_02 0.000000 0.000000 0.000000 0.000000 0.000000 0.000000 10.000000 
R_front_hand02_02 0.000000 0.000000 0.000000 0.000000 0.000000 0.000000 10.000000 
R_front_hand03_02 0.000000 0.000000 0.000000 0.000000 0.000000 0.000000 10.000000 
null_rope01_connect 0.000000 0.000000 0.000000 0.000000 0.000000 0.000000 10.000000 
Rope1_Seg01 0.000000 0.000000 0.000000 0.000000 0.000000 0.000000 10.000000 
Rope1_Seg02 0.000000 0.000000 0.000000 0.000000 0.000000 0.000000 10.000000 
Rope1_Seg03 0.000000 0.000000 0.000000 0.000000 0.000000 0.000000 10.000000 
Rope1_Seg04 0.000000 0.000000 0.000000 0.000000 0.000000 0.000000 10.000000 
Rope1_Seg05 0.000000 0.000000 0.000000 0.000000 0.000000 0.000000 10.000000 
Rope1_Seg06 0.000000 0.000000 0.000000 0.000000 0.000000 0.000000 10.000000 
Rope1_Seg07 0.000000 0.000000 0.000000 0.000000 0.000000 0.000000 10.000000 
Rope1_Seg09 0.000000 0.000000 0.000000 0.000000 0.000000 0.000000 10.000000 
L_mid_hand01 0.000000 0.000000 0.000000 0.000000 0.000000 0.000000 10.000000 
L_mid_hand02 0.000000 0.000000 0.000000 0.000000 0.000000 0.000000 10.000000 
L_mid_hand03 0.000000 0.000000 0.000000 0.000000 0.000000 0.000000 10.000000 
null_rope02_connect 0.000000 0.000000 0.000000 0.000000 0.000000 0.000000 10.000000 
Rope2_Seg01 0.000000 0.000000 0.000000 0.000000 0.000000 0.000000 10.000000 
Rope2_Seg02 0.000000 0.000000 0.000000 0.000000 0.000000 0.000000 10.000000 
Rope2_Seg03 0.000000 0.000000 0.000000 0.000000 0.000000 0.000000 10.000000 
Rope2_Seg04 0.000000 0.000000 0.000000 0.000000 0.000000 0.000000 10.000000 
Rope2_Seg05 0.000000 0.000000 0.000000 0.000000 0.000000 0.000000 10.000000 
Rope2_Seg06 0.000000 0.000000 0.000000 0.000000 0.000000 0.000000 10.000000 
Rope2_Seg07 0.000000 0.000000 0.000000 0.000000 0.000000 0.000000 10.000000 
Rope2_Seg09 0.000000 0.000000 0.000000 0.000000 0.000000 0.000000 10.000000 
R_mid_hand01 0.000000 0.000000 0.000000 0.000000 0.000000 0.000000 10.000000 
R_mid_hand02 0.000000 0.000000 0.000000 0.000000 0.000000 0.000000 10.000000 
R_mid_hand03 0.000000 0.000000 0.000000 0.000000 0.000000 0.000000 10.000000 
spine02 0.000000 0.000000 0.000000 0.000000 0.000000 0.000000 10.000000 
spine03 0.000000 0.000000 0.000000 0.000000 0.000000 0.000000 10.000000 
pelvis 0.000000 0.000000 0.000000 0.000000 0.000000 0.000000 10.000000 
null_rope03_connect 0.000000 0.000000 0.000000 0.000000 0.000000 0.000000 10.000000 
null_rope04_connect 0.000000 0.000000 0.000000 0.000000 0.000000 0.000000 10.000000 
Rope3_Seg01 0.000000 0.000000 0.000000 0.000000 0.000000 0.000000 10.000000 
Rope3_Seg02 0.000000 0.000000 0.000000 0.000000 0.000000 0.000000 10.000000 
Rope3_Seg03 0.000000 0.000000 0.000000 0.000000 0.000000 0.000000 10.000000 
Rope3_Seg04 0.000000 0.000000 0.000000 0.000000 0.000000 0.000000 10.000000 
Rope3_Seg05 0.000000 0.000000 0.000000 0.000000 0.000000 0.000000 10.000000 
Rope3_Seg06 0.000000 0.000000 0.000000 0.000000 0.000000 0.000000 10.000000 
Rope3_Seg07 0.000000 0.000000 0.000000 0.000000 0.000000 0.000000 10.000000 
Rope3_Seg08 0.000000 0.000000 0.000000 0.000000 0.000000 0.000000 10.000000 
Rope3_Seg09 0.000000 0.000000 0.000000 0.000000 0.000000 0.000000 10.000000 
R_rear_hand01 0.000000 0.000000 0.000000 0.000000 0.000000 0.000000 10.000000 
R_rear_hand02 0.000000 0.000000 0.000000 0.000000 0.000000 0.000000 10.000000 
R_rear_hand03 0.000000 0.000000 0.000000 0.000000 0.000000 0.000000 10.000000 
Rope4_Seg01 0.000000 0.000000 0.000000 0.000000 0.000000 0.000000 10.000000 
Rope4_Seg02 0.000000 0.000000 0.000000 0.000000 0.000000 0.000000 10.000000 
Rope4_Seg03 0.000000 0.000000 0.000000 0.000000 0.000000 0.000000 10.000000 
Rope4_Seg04 0.000000 0.000000 0.000000 0.000000 0.000000 0.000000 10.000000 
Rope4_Seg05 0.000000 0.000000 0.000000 0.000000 0.000000 0.000000 10.000000 
Rope4_Seg06 0.000000 0.000000 0.000000 0.000000 0.000000 0.000000 10.000000 
Rope4_Seg07 0.000000 0.000000 0.000000 0.000000 0.000000 0.000000 10.000000 
Rope4_Seg08 0.000000 0.000000 0.000000 0.000000 0.000000 0.000000 10.000000 
Rope4_Seg09 0.000000 0.000000 0.000000 0.000000 0.000000 0.000000 10.000000 
L_rear_hand01 0.000000 0.000000 0.000000 0.000000 0.000000 0.000000 10.000000 
L_rear_hand02 0.000000 0.000000 0.000000 0.000000 0.000000 0.000000 10.000000 
L_rear_hand03 0.000000 0.000000 0.000000 0.000000 0.000000 0.000000 10.000000 
#Beginning of Data. Separated by tabs
#Fr	Tx	Ty	Tz	Rx	Ry	Rz	SF
[MASTER]
1 0.000000 0.000000 0.000000 0.001660 0.001660 0.001660 0.000000
2 0.000000 0.000000 0.000000 0.001660 0.001660 0.001660 0.000000
[root]
1 -16.502245 -199.343765 1093.534668 -85.747314 -61.785290 -93.080696 1111.678223
2 -16.510431 -198.459000 1094.209351 -85.772034 -59.469448 -92.734390 1112.183716
[chest]
1 -84.512650 -34.090519 0.000000 2.351820 -1.564439 -123.862190 91.129311
2 -84.512650 -34.090519 0.000000 2.375059 -1.580366 -123.137878 91.129311
[L_mid_tent01]
1 27.299576 22.177525 -249.917984 -16.931427 0.775482 122.615417 252.380875
2 27.313669 22.169441 -250.008469 -17.150002 0.577231 122.198654 252.471283
[R_mid_tent01]
1 23.228794 24.509907 226.238495 -174.907959 1.879111 112.552544 228.744751
2 23.228794 24.509907 226.238495 -174.735184 2.001740 112.220528 228.744751
[spine01]
1 -0.361383 -0.195265 0.000000 0.001947 0.001312 22.051847 0.410763
2 -0.361383 -0.195265 0.000000 0.001947 0.001311 22.082079 0.410763
[Bip01_Neck]
1 165.484543 71.581718 0.000119 175.896118 1.177290 24.871183 180.302734
2 165.484543 71.581718 0.000119 175.896118 1.177290 24.871183 180.302734
[L_humerus]
1 -13.983130 -135.272980 -120.471481 -91.668312 0.804970 -167.458298 181.680161
2 -13.983130 -135.272980 -120.471481 -90.072510 0.894468 -169.171036 181.680161
[R_humerus]
1 -13.983309 -135.273102 125.287651 103.000740 1.729733 -169.272232 184.909012
2 -13.983309 -135.273102 125.287651 103.000740 1.729734 -169.272232 184.909012
[weapon_bone]
1 235.964890 -300.705902 0.000000 0.000000 -89.951546 -128.212341 382.234833
2 235.964890 -300.705902 0.000000 0.000000 -89.951546 -128.212341 382.234833
[Bip01_Head]
1 102.819824 23.735428 5.410395 3.150731 3.423701 -20.839092 105.662476
2 102.819824 23.735434 5.410389 3.150731 3.423701 -20.839094 105.662476
[eye_left_bone]
1 -24.626970 125.451866 -64.772606 0.000000 -90.000000 -99.840431 143.318359
2 -24.626970 125.451866 -64.772606 0.000000 -90.000000 -99.840431 143.318359
[eye_right_bone]
1 -24.626970 125.451866 64.327362 0.000000 -89.972023 80.159386 143.117676
2 -24.626970 125.451866 64.327362 0.000000 -89.960434 80.159386 143.117676
[L_forearm]
1 322.776093 0.000000 -0.000119 0.000017 0.002347 -89.149834 322.776093
2 322.776093 0.000000 -0.000119 0.000016 0.002347 -89.226242 322.776093
[L_front_hand]
1 241.149185 -0.042021 -3.300071 -177.733521 -0.056157 -80.028160 241.171753
2 241.149185 -0.042021 -3.300071 -177.733551 -0.057689 -79.950714 241.171753
[L_weapon_bone]
1 156.183838 0.000000 0.000000 0.001660 0.001660 0.001672 156.183838
2 156.183838 0.000000 0.000000 0.001671 0.001648 0.783120 156.183838
[L_front_hand01_01]
1 86.095154 20.947098 -0.655860 0.405585 -0.442306 -4.620490 88.609184
2 86.095154 20.947098 -0.655860 0.405585 -0.442306 -4.620490 88.609184
[L_front_hand02_01]
1 86.935165 -11.437475 24.513514 116.959450 3.630817 1.495453 91.046425
2 86.935165 -11.437475 24.513514 116.959450 3.630817 1.495453 91.046425
[L_front_hand03_01]
1 86.637497 -14.123976 -20.424902 -118.420113 -4.656304 -0.152527 90.126129
2 86.637497 -14.123976 -20.424902 -118.420097 -4.656303 -0.152527 90.126129
[L_front_hand01_02]
1 71.020905 -0.000179 0.000030 0.001534 0.001777 -8.378850 71.020905
2 71.020905 -0.000179 0.000030 0.001534 0.001777 -8.378848 71.020905
[L_front_hand02_02]
1 71.020927 -0.000119 0.000060 0.001534 0.001777 -8.378850 71.020927
2 71.020927 -0.000119 0.000060 0.001534 0.001777 -8.378848 71.020927
[L_front_hand03_02]
1 71.020905 -0.000060 0.000060 0.001534 0.001777 -8.378850 71.020905
2 71.020905 -0.000060 0.000060 0.001534 0.001777 -8.378848 71.020905
[R_forearm]
1 322.776428 -0.000060 0.000030 0.207856 -0.034204 -81.462502 322.776428
2 322.776428 -0.000060 0.000030 0.207943 -0.033671 -81.756523 322.776428
[R_front_hand]
1 238.847015 -0.006795 2.210259 -1.672657 -0.416886 -92.753014 238.857239
2 238.847015 -0.006795 2.210259 -1.672930 -0.415788 -92.677841 238.857239
[R_weapon_bone]
1 155.664093 0.002503 -0.000030 0.003487 0.001180 -90.988930 155.664078
2 155.664093 0.002503 -0.000030 0.003477 0.001207 -91.893898 155.664078
[R_front_hand01_01]
1 87.624611 14.231146 22.918642 -116.960213 3.496675 -1.324139 91.683487
2 87.624611 14.231146 22.918642 -116.960213 3.496675 -1.324138 91.683487
[R_front_hand02_01]
1 89.356956 14.367283 -19.491137 118.419647 -4.257089 0.609827 92.579636
2 89.356956 14.367283 -19.491137 118.419632 -4.257088 0.609827 92.579636
[R_front_hand03_01]
1 87.286232 -22.307278 -0.143439 -0.387970 -0.231462 4.232001 90.091743
2 87.286232 -22.307278 -0.143439 -0.387970 -0.231462 4.232001 90.091743
[R_front_hand01_02]
1 71.020905 0.000060 0.000119 0.001777 0.001534 8.377220 71.020905
2 71.020905 0.000060 0.000119 0.001777 0.001534 8.377220 71.020905
[R_front_hand02_02]
1 71.020844 -0.000030 -0.000119 0.001777 0.001534 8.377220 71.020836
2 71.020844 -0.000030 -0.000119 0.001777 0.001534 8.377220 71.020836
[R_front_hand03_02]
1 71.020905 0.000000 0.000030 0.001777 0.001534 8.377220 71.020905
2 71.020905 0.000000 0.000030 0.001777 0.001534 8.377220 71.020905
[null_rope01_connect]
1 328.732483 0.000000 -0.000238 114.834457 -73.416130 -85.415192 328.732483
2 328.732483 0.000000 -0.000238 111.610359 -72.940422 -84.022461 328.732483
[Rope1_Seg01]
1 0.000000 0.000000 0.000000 76.197083 39.918499 88.813637 0.000000
2 0.000000 0.000000 0.000000 80.800346 31.085663 91.822105 0.000000
[Rope1_Seg02]
1 139.999863 -0.000179 0.000000 43.991013 -19.065521 61.903862 139.999863
2 139.999863 -0.000179 0.000000 44.814373 -17.838228 54.743507 139.999863
[Rope1_Seg03]
1 139.999924 0.000060 -0.000060 34.182720 5.682648 10.222095 139.999924
2 139.999924 0.000060 -0.000060 43.863594 7.847164 12.642413 139.999924
[Rope1_Seg04]
1 139.999924 -0.000060 -0.000119 58.825523 35.984314 22.761171 139.999924
2 139.999924 -0.000060 -0.000119 47.057777 43.092728 14.366026 139.999924
[Rope1_Seg05]
1 139.999832 0.000119 -0.000060 2.019392 30.094545 -14.619737 139.999832
2 139.999832 0.000119 -0.000060 0.875066 23.801497 -12.719886 139.999832
[Rope1_Seg06]
1 139.999954 0.000119 -0.000060 -0.459781 11.851658 -6.837198 139.999954
2 139.999954 0.000119 -0.000060 -0.362566 10.188347 -5.976801 139.999954
[Rope1_Seg07]
1 139.999985 0.000060 0.000000 -0.248390 4.385153 -2.522300 139.999985
2 139.999985 0.000060 0.000000 -0.175485 3.659452 -2.136747 139.999985
[Rope1_Seg09]
1 121.602913 0.000119 -0.000089 -89.793175 -1.359789 0.847147 121.602913
2 121.602913 0.000119 -0.000089 -89.793175 -1.359789 0.847147 121.602913
[L_mid_hand01]
1 103.859421 1.038730 8.195221 104.352036 0.341479 -0.444583 104.187431
2 103.859421 1.038730 8.195221 104.352036 0.341479 -0.444583 104.187431
[L_mid_hand02]
1 105.572853 -4.139662 -10.864139 -135.608444 3.905687 -3.381056 106.211075
2 105.572853 -4.139662 -10.864139 -135.608444 3.905687 -3.381056 106.211075
[L_mid_hand03]
1 104.641464 17.579376 -3.913581 -18.761518 -0.324361 2.942913 106.179977
2 104.641464 17.579376 -3.913581 -18.761515 -0.324361 2.942912 106.179977
[null_rope02_connect]
1 328.732849 0.000179 -0.000119 130.241928 84.150146 -89.027550 328.732849
2 328.732849 0.000179 -0.000119 129.834198 84.149879 -87.448753 328.732849
[Rope2_Seg01]
1 0.000076 0.000110 0.000153 -7.416171 51.930084 104.849846 0.000203
2 0.000076 0.000110 0.000153 -9.966333 51.915901 102.046715 0.000203
[Rope2_Seg02]
1 139.999741 -0.000060 -0.000119 -13.919561 -44.901043 -23.551973 139.999756
2 139.999741 -0.000060 -0.000119 -14.018950 -49.817719 -30.075195 139.999756
[Rope2_Seg03]
1 140.000107 0.000030 0.000000 -30.767923 -26.441519 -33.583717 140.000107
2 140.000107 0.000030 0.000000 -27.743643 -21.373152 -30.678301 140.000107
[Rope2_Seg04]
1 139.999802 0.000000 -0.000060 -19.617182 -10.911937 -27.500141 139.999802
2 139.999802 0.000000 -0.000060 -19.845768 -11.280908 -29.214100 139.999802
[Rope2_Seg05]
1 139.999985 -0.000060 0.000119 -14.561045 -1.747172 -36.171623 139.999985
2 139.999985 -0.000060 0.000119 -12.898779 -0.226105 -32.941620 139.999985
[Rope2_Seg06]
1 139.999893 -0.000030 -0.000119 -2.783750 3.750079 -14.875895 139.999893
2 139.999893 -0.000030 -0.000119 -2.532385 3.401562 -13.615990 139.999893
[Rope2_Seg07]
1 139.999893 0.000060 -0.000060 -0.463123 1.829235 -6.147086 139.999893
2 139.999893 0.000060 -0.000060 -0.458284 1.569515 -5.378135 139.999893
[Rope2_Seg09]
1 121.338966 0.000089 -0.000060 33.793236 -1.359788 -0.847141 121.338966
2 121.338966 0.000089 -0.000060 33.793236 -1.359788 -0.847141 121.338966
[R_mid_hand01]
1 104.680779 11.144459 -10.335981 -47.384243 2.963521 5.452602 105.778534
2 104.680779 11.144459 -10.335981 -47.384243 2.963521 5.452602 105.778534
[R_mid_hand02]
1 104.070427 2.443552 8.231699 75.626297 -2.250001 1.111093 104.424065
2 104.070427 2.443552 8.231699 75.626289 -2.250001 1.111093 104.424065
[R_mid_hand03]
1 106.028137 -11.221827 -5.996406 -164.381912 2.495983 -6.140520 106.788818
2 106.028137 -11.221827 -5.996406 -164.381912 2.495983 -6.140520 106.788818
[spine02]
1 129.756927 0.001550 0.000119 -3.457475 -3.018588 45.475353 129.756927
2 129.756927 0.001550 0.000119 -3.453488 -3.009634 45.469460 129.756927
[spine03]
1 79.115639 0.000000 0.000004 5.373959 8.457514 50.351662 79.115639
2 79.110352 0.000910 -0.051610 5.381402 8.391399 50.527782 79.110367
[pelvis]
1 169.435242 0.051022 0.000000 -7.280166 -2.849531 13.982491 169.435257
2 169.435242 0.051022 0.000000 -7.277725 -2.863250 14.008291 169.435257
[null_rope03_connect]
1 -1.257226 -2.466202 137.391083 152.177261 -84.367615 -131.564713 137.418976
2 -1.257226 -2.466202 137.391083 145.775101 -84.334068 -127.691238 137.418976
[null_rope04_connect]
1 -1.259640 -2.480268 -137.844437 152.177261 -84.367615 -131.564713 137.872513
2 -1.259640 -2.480268 -137.844437 145.775101 -84.334068 -127.691238 137.872513
[Rope3_Seg01]
1 0.000038 0.000153 0.000000 -176.711685 77.972939 -111.223129 0.000157
2 0.000039 0.000150 0.000000 -176.368530 76.704956 -111.341415 0.000155
[Rope3_Seg02]
1 139.999924 -0.000119 0.000060 -8.559696 -16.796869 9.094070 139.999924
2 139.999924 -0.000119 0.000060 -9.934913 -18.549906 10.342731 139.999924
[Rope3_Seg03]
1 139.999924 -0.000119 0.000119 -17.155886 -41.082794 19.356167 139.999924
2 139.999924 -0.000119 0.000119 -18.152876 -43.245964 20.277643 139.999924
[Rope3_Seg04]
1 139.999924 0.000119 0.000000 -1.377835 -25.852205 5.409451 139.999924
2 139.999924 0.000119 0.000000 -0.782001 -23.995518 4.542599 139.999924
[Rope3_Seg05]
1 139.999924 -0.000238 0.000060 8.328478 -54.778973 11.993333 139.999924
2 139.999924 -0.000238 0.000060 8.814490 -59.050571 14.321591 139.999924
[Rope3_Seg06]
1 139.999893 -0.000119 -0.000060 11.307846 -49.904762 29.957026 139.999893
2 139.999893 -0.000119 -0.000060 11.586667 -44.687405 27.947508 139.999893
[Rope3_Seg07]
1 139.999771 0.000060 -0.000119 3.256841 -5.855443 6.675831 139.999771
2 139.999771 0.000060 -0.000119 3.051043 -5.402698 6.205632 139.999771
[Rope3_Seg08]
1 139.999985 -0.000060 0.000000 1.545702 -2.092962 2.694509 139.999985
2 139.999985 -0.000060 0.000000 1.500358 -2.001246 2.577724 139.999985
[Rope3_Seg09]
1 90.185997 -0.000179 -0.000060 89.793228 -1.359877 -0.847183 90.185997
2 90.185997 -0.000179 -0.000060 89.793228 -1.359877 -0.847183 90.185997
[R_rear_hand01]
1 103.366196 -6.073594 -10.757982 -156.049316 6.070419 -2.795869 104.101845
2 103.366196 -6.073594 -10.757982 -156.049316 6.070419 -2.795869 104.101845
[R_rear_hand02]
1 100.509819 12.039542 -7.992327 -38.708435 1.958051 5.461186 101.543350
2 100.509819 12.039542 -7.992327 -38.708431 1.958051 5.461185 101.543350
[R_rear_hand03]
1 101.539970 5.215704 5.435467 84.307625 -2.361032 4.099037 101.819031
2 101.539970 5.215704 5.435467 84.307625 -2.361032 4.099037 101.819031
[Rope4_Seg01]
1 0.000000 0.000076 -0.000153 87.856987 80.594917 -74.455612 0.000171
2 0.000000 0.000073 -0.000150 85.380791 79.981178 -76.699730 0.000166
[Rope4_Seg02]
1 139.999985 0.000060 0.000119 4.210982 4.618287 -12.673834 139.999985
2 139.999985 0.000060 0.000119 4.583578 5.233981 -14.225551 139.999985
[Rope4_Seg03]
1 139.999924 0.000000 -0.000238 5.271554 10.002122 -40.584782 139.999924
2 139.999924 0.000000 -0.000238 4.617650 10.582442 -44.549427 139.999924
[Rope4_Seg04]
1 139.999985 0.000000 0.000119 -2.512970 3.907010 -40.927288 139.999985
2 139.999985 0.000000 0.000119 -2.682940 3.487278 -36.571232 139.999985
[Rope4_Seg05]
1 139.999802 -0.000060 -0.000119 -7.154851 5.104277 -27.286806 139.999802
2 139.999802 -0.000060 -0.000119 -9.356420 5.711104 -33.017498 139.999802
[Rope4_Seg06]
1 139.999924 0.000000 0.000060 -22.524019 13.763688 -50.553394 139.999924
2 139.999924 0.000000 0.000060 -25.198191 14.876137 -53.381008 139.999924
[Rope4_Seg07]
1 139.999802 0.000000 0.000000 -7.321330 11.329869 -17.966536 139.999802
2 139.999802 0.000000 0.000000 -5.579916 9.907919 -14.107558 139.999802
[Rope4_Seg08]
1 139.999924 0.000000 0.000119 -2.790387 3.412512 -4.294308 139.999924
2 139.999924 0.000000 0.000119 -2.635058 3.200764 -3.823924 139.999924
[Rope4_Seg09]
1 90.185791 0.000060 0.000060 -135.617828 2.228885 0.850567 90.185791
2 90.185791 0.000060 0.000060 -135.617828 2.228885 0.850567 90.185791
[L_rear_hand01]
1 101.696655 -8.392275 -7.654577 -38.746338 0.246096 177.290207 102.329041
2 101.696655 -8.392275 -7.654577 -38.746338 0.246096 177.290207 102.329041
[L_rear_hand02]
1 102.726799 -1.568258 5.773216 84.315163 -1.142796 176.247437 102.900848
2 102.726799 -1.568258 5.773216 84.315140 -1.142796 176.247437 102.900848
[L_rear_hand03]
1 104.552910 9.721220 -10.420293 -155.747955 -4.630845 179.564758 105.519653
2 104.552910 9.721220 -10.420293 -155.747955 -4.630845 179.564758 105.519653
